# xmcd CD database file
#
# Track frame offsets:
#	150
#	15777
#	35047
#	50410
#	68985
#	85580
#	99305
#	115427
#	129080
#	144947
#	163327
#	182587
#	202367
#	218770
#
# Disc length: 3171 seconds
#
# Revision: 6
# Processed by: cddbd v1.5PL3 Copyright (c) Steve Scherf et al.
# Submitted via: CDex 1.51
#
DISCID=be0c610e
DTITLE=MANIC STREET PREACHERS - Everything Must Go ( )
DYEAR=1996
DGENRE=Rock
TTITLE0=Elvis Impersonator: Blackpool Pier
TTITLE1=A Design For Life
TTITLE2=Kevin Carter
TTITLE3=Enola/Alone
TTITLE4=Everything Must Go
TTITLE5=Small Black Flowers That Grow In The Sky
TTITLE6=The Girl Who Wanted To Be God
TTITLE7=No-One Knows What It's Like To Be Me
TTITLE8=Removables
TTITLE9=Australia
TTITLE10=Interiors (Song For Willem De Kooning)
TTITLE11=Black Garden
TTITLE12=Further Away
TTITLE13=No Surface All Feeling
EXTD=YEAR: 1996
EXTT0=
EXTT1=
EXTT2=
EXTT3=
EXTT4=
EXTT5=
EXTT6=
EXTT7=
EXTT8=
EXTT9=
EXTT10=
EXTT11=
EXTT12=
EXTT13=
PLAYORDER=
